<?xml version="1.0" encoding="UTF-8" standalone="no"?>
<svg
   xmlns:dc="http://purl.org/dc/elements/1.1/"
   xmlns:cc="http://creativecommons.org/ns#"
   xmlns:rdf="http://www.w3.org/1999/02/22-rdf-syntax-ns#"
   xmlns:svg="http://www.w3.org/2000/svg"
   xmlns="http://www.w3.org/2000/svg"
   xmlns:sodipodi="http://sodipodi.sourceforge.net/DTD/sodipodi-0.dtd"
   xmlns:inkscape="http://www.inkscape.org/namespaces/inkscape"
   version="1.1"
   viewBox="0 0 600 600"
   id="svg2"
   inkscape:version="0.48.5 r10040"
   width="100%"
   height="100%"
   sodipodi:docname="miom_rk.svg">
  <metadata
     id="metadata34">
    <rdf:RDF>
      <cc:Work
         rdf:about="">
        <dc:format>image/svg+xml</dc:format>
        <dc:type
           rdf:resource="http://purl.org/dc/dcmitype/StillImage" />
      </cc:Work>
    </rdf:RDF>
  </metadata>
  <defs
     id="defs32" />
  <sodipodi:namedview
     pagecolor="#ffffff"
     bordercolor="#666666"
     borderopacity="1"
     objecttolerance="10"
     gridtolerance="10"
     guidetolerance="10"
     inkscape:pageopacity="0"
     inkscape:pageshadow="2"
     inkscape:window-width="1027"
     inkscape:window-height="739"
     id="namedview30"
     showgrid="false"
     inkscape:zoom="0.39333333"
     inkscape:cx="300"
     inkscape:cy="300"
     inkscape:window-x="118"
     inkscape:window-y="34"
     inkscape:window-maximized="0"
     inkscape:current-layer="svg2" />
  <rect
     height="600"
     width="600"
     y="2.6171874e-06"
     x="4.7627253e-14"
     id="rect12"
     style="fill-rule:evenodd;fill:#ffffff" />
  <g
     id="g14"
     style="fill:#000000"
     transform="translate(1.2306753e-6,-452.36218)">
    <path
       d="m 57.973762,925.54098 h 13.753883 v 5.50156 c 2.648871,-2.7711 4.910619,-4.6457 6.785249,-5.62381 1.996829,-1.01875 4.50309,-1.52815 7.51879,-1.52821 6.724077,6e-5 12.04224,2.93422 15.954506,8.80248 4.31968,-5.86826 10.16762,-8.80242 17.54384,-8.80248 13.40741,6e-5 20.11114,8.13012 20.11123,24.39022 v 36.79928 h -13.81501 v -33.07045 c -7e-5,-5.70528 -0.69286,-9.73975 -2.07836,-12.10342 -1.4264,-2.40433 -3.76965,-3.60652 -7.02976,-3.60657 -3.79003,5e-5 -6.56118,1.42637 -8.31346,4.27898 -1.71165,2.8527 -2.56745,7.43733 -2.56739,13.75389 v 30.74757 H 92.022264 v -32.88707 c -4.2e-5,-10.59554 -3.056458,-15.89332 -9.169255,-15.89337 -3.871493,5e-5 -6.703772,1.44675 -8.496844,4.34011 -1.75237,2.89345 -2.628542,7.4577 -2.62852,13.69276 v 30.74757 H 57.973762 v -59.53904"
       id="path16"
       inkscape:connector-curvature="0"
       style="fill:#000000" />
    <path
       d="m 170.75561,925.54098 v 59.53904 h -13.75389 v -59.53904 h 13.75389 m -15.83225,-24.75699 c -1e-5,-2.40429 0.87616,-4.48265 2.62852,-6.23509 1.75233,-1.75225 3.85107,-2.62843 6.29622,-2.62852 2.48587,9e-5 4.60498,0.87627 6.35735,2.62852 1.75232,1.71168 2.6285,3.81042 2.62852,6.29622 -2e-5,2.48597 -0.8762,4.60509 -2.62852,6.35735 -1.71161,1.75243 -3.81035,2.6286 -6.29622,2.62852 -2.4859,8e-5 -4.60502,-0.87609 -6.35735,-2.62852 -1.75236,-1.75226 -2.62853,-3.89175 -2.62852,-6.41848"
       id="path18"
       inkscape:connector-curvature="0"
       style="fill:#000000" />
    <path
       d="m 185.48754,954.8826 c -1e-5,-8.59868 3.07679,-15.9137 9.23038,-21.94508 6.15357,-6.03128 13.65198,-9.04694 22.49524,-9.047 8.88395,6e-5 16.42311,3.0361 22.6175,9.10813 6.11277,6.07213 9.16919,13.52978 9.16926,22.37298 -7e-5,8.92476 -3.07686,16.40279 -9.23039,22.43411 -6.19439,5.99058 -13.79468,8.98587 -22.80088,8.98587 -8.92477,0 -16.4028,-3.05642 -22.43411,-9.16925 -6.03134,-6.03132 -9.04701,-13.61123 -9.047,-22.73976 m 14.05953,0.24452 c -2e-5,5.94985 1.58931,10.65673 4.76801,14.12065 3.26015,3.5047 7.55951,5.25705 12.89808,5.25704 5.37926,10e-6 9.67862,-1.73196 12.89809,-5.19591 3.21937,-3.46392 4.82909,-8.0893 4.82914,-13.87614 -5e-5,-5.78679 -1.60977,-10.41216 -4.82914,-13.87614 -3.26023,-3.50465 -7.55958,-5.25699 -12.89809,-5.25704 -5.25707,5e-5 -9.51567,1.75239 -12.77582,5.25704 -3.26021,3.50473 -4.89029,8.02823 -4.89027,13.5705"
       id="path20"
       inkscape:connector-curvature="0"
       style="fill:#000000" />
    <path
       d="m 263.6096,925.54098 h 13.75388 v 5.50156 c 2.64887,-2.7711 4.91062,-4.6457 6.78525,-5.62381 1.99683,-1.01875 4.50309,-1.52815 7.51879,-1.52821 6.72408,6e-5 12.04224,2.93422 15.9545,8.80248 4.31968,-5.86826 10.16763,-8.80242 17.54384,-8.80248 13.40741,6e-5 20.11115,8.13012 20.11124,24.39022 v 36.79928 h -13.81501 v -33.07045 c -8e-5,-5.70528 -0.69287,-9.73975 -2.07837,-12.10342 -1.4264,-2.40433 -3.76965,-3.60652 -7.02976,-3.60657 -3.79002,5e-5 -6.56117,1.42637 -8.31346,4.27898 -1.71165,2.8527 -2.56745,7.43733 -2.56739,13.75389 v 30.74757 H 297.6581 v -32.88707 c -4e-5,-10.59554 -3.05646,-15.89332 -9.16926,-15.89337 -3.87149,5e-5 -6.70377,1.44675 -8.49684,4.34011 -1.75237,2.89345 -2.62854,7.4577 -2.62852,13.69276 v 30.74757 H 263.6096 v -59.53904"
       id="path22"
       inkscape:connector-curvature="0"
       style="fill:#000000" />
    <path
       d="m 435.86936,944.85755 29.21936,40.22247 h -17.42159 l -26.95761,-38.63313 h -2.56739 v 38.63313 h -14.24291 v -94.38221 h 16.68804 c 12.47015,10e-5 21.47639,2.34335 27.01874,7.02977 6.11278,5.21637 9.16919,12.10349 9.16926,20.66138 -7e-5,6.68343 -1.91542,12.42949 -5.74607,17.23821 -3.83076,4.80881 -8.88404,7.8856 -15.15983,9.23038 m -17.72723,-10.81972 h 4.5235 c 13.48895,5e-5 20.23344,-5.15511 20.23349,-15.46548 -5e-5,-9.65821 -6.56116,-14.48734 -19.68334,-14.48742 h -5.07365 v 29.9529"
       id="path24"
       inkscape:connector-curvature="0"
       style="fill:#000000" />
    <path
       d="m 493.45228,928.35289 36.73815,-37.65508 h 19.01092 l -42.6676,42.72873 42.91212,51.65348 h -19.07206 l -33.98737,-41.99519 -2.93416,2.93416 v 39.06103 h -14.24291 v -94.38221 h 14.24291 v 37.65508"
       id="path26"
       inkscape:connector-curvature="0"
       style="fill:#000000" />
    <path
       d="m 291.34375,452.375 -79.1875,282.6875 h 10.375 l 79.1875,-282.6875 h -10.375 z m 55,0 -79.1875,282.6875 h 10.375 l 79.1875,-282.6875 h -10.375 z m 55,0 -79.1875,282.6875 h 10.375 l 79.1875,-282.6875 h -10.375 z m 55,0 L 404.75,636.5625 h 10.375 L 466.71875,452.375 h -10.375 z m 55,0 L 459.75,636.5625 h 10.375 L 521.71875,452.375 h -10.375 z"
       id="path28"
       inkscape:connector-curvature="0"
       style="fill:#000000" />
  </g>
</svg>
